{"title":"Bubble Gum Pakistani Punjabi Stage Show","uid":6606678,"size":678882005,"categoryP":"video","categoryS":"other","magnet":"?xt=urn:btih:2db8420f37b9f0097a75ff495bc56581be7bf2f6&amp;dn=Bubble+Gum+Pakistani+Punjabi+Stage+Show&amp;tr=udp%3A%2F%2Ftracker.openbittorrent.com%3A80&amp;tr=udp%3A%2F%2Fopen.demonii.com%3A1337&amp;tr=udp%3A%2F%2Ftracker.coppersurfer.tk%3A6969&amp;tr=udp%3A%2F%2Fexodus.desync.com%3A6969","seeders":0,"leechers":1,"uploader":".Dude.","files":2,"time":1313424407,"description":"General\nUnique ID : 154092972026667777484735847372200883625 (0x73ED3A166B1F9C4BFC1ECC7784A035A9)\nComplete name : D:\\My Stuff\\Documents\\Torrents\\Bubble Gum Pakistani Punjabi Stage Show\\Bubble Gum Pakistani Punjabi Stage Show.mkv\nFormat : Matroska\nFormat version : Version 2\nFile size : 647 MiB\nDuration : 1h 53mn\nOverall bit rate : 796 Kbps\nEncoded date : UTC 2011-08-14 21:45:06\nWriting application : TMPGEnc Video Mastering Works 5 Version. 5.0.6.38\nWriting library : TMPGEnc Video Mastering Works 5 Version. 5.0.6.38\n\nVideo\nID : 2\nFormat : AVC\nFormat/Info : Advanced Video Codec\nFormat profile : &lt;a class=&quot;__cf_email__&quot; href=&quot;/cdn-cgi/l/email-protection&quot; data-cfemail=&quot;f4bc9d939cb4b8c5dac7&quot;&gt;[email&amp;#160;protected]&lt;/a&gt;&lt;script cf-hash='f9e31' type=&quot;text/javascript&quot;&gt;\n/* &lt;![CDATA[ */!function(){try{var t=&quot;currentScript&quot;in document?document.currentScript:function(){for(var t=document.getElementsByTagName(&quot;script&quot;),e=t.length;e--;)if(t[e].getAttribute(&quot;cf-hash&quot;))return t[e]}();if(t&amp;&amp;t.previousSibling){var e,r,n,i,c=t.previousSibling,a=c.getAttribute(&quot;data-cfemail&quot;);if(a){for(e=&quot;&quot;,r=parseInt(a.substr(0,2),16),n=2;a.length-n;n+=2)i=parseInt(a.substr(n,2),16)^r,e+=String.fromCharCode(i);e=document.createTextNode(e),c.parentNode.replaceChild(e,c)}}}catch(u){}}();/* ]]&gt; */&lt;/script&gt;\nFormat settings, CABAC : Yes\nFormat settings, ReFrames : 3 frames\nCodec ID : V_MPEG4/ISO/AVC\nDuration : 1h 53mn\nBit rate mode : Constant\nBit rate : 750 Kbps / 750 Kbps\nWidth : 352 pixels\nHeight : 288 pixels\nDisplay aspect ratio : 4:3\nFrame rate : 25.000 fps\nStandard : NTSC\nColor space : YUV\nChroma subsampling : 4:2:0\nBit depth : 8 bits\nScan type : Progressive\nBits/(Pixel*Frame) : 0.296\nStream size : 582 MiB (90%)\nWriting library : x264 core 114\n BT.470-6 System G, BT.601-6 625, BT.1358 625, BT.1700 625 PAL, BT.1700 625 SECAM\nTransfer characteristics : BT.470-6 System B, BT.470-6 System G\nMatrix coefficients : BT.470-6 System B, BT.470-6 System G, BT.601-6 625, BT.1358 625, BT.1700 625 PAL, BT.1700 625 SECAM, IEC 61966-2-4 601\n\nAudio\nID : 1\nFormat : MPEG Audio\nFormat version : Version 1\nFormat profile : Layer 3\nCodec ID : A_MPEG/L1\nCodec ID/Hint : MP1\nDuration : 1h 53mn\nBit rate mode : Constant\nBit rate : 64.0 Kbps\nChannel(s) : 1 channel\nSampling rate : 44.1 KHz\nCompression mode : Lossy\nStream size : 52.0 MiB (8%)","torrent":{"xt":"urn:btih:2db8420f37b9f0097a75ff495bc56581be7bf2f6","amp;dn":"Bubble+Gum+Pakistani+Punjabi+Stage+Show","amp;tr":["udp%3A%2F%2Ftracker.openbittorrent.com%3A80","udp%3A%2F%2Fopen.demonii.com%3A1337","udp%3A%2F%2Ftracker.coppersurfer.tk%3A6969","udp%3A%2F%2Fexodus.desync.com%3A6969"],"infoHash":"2db8420f37b9f0097a75ff495bc56581be7bf2f6","infoHashBuffer":{"type":"Buffer","data":[45,184,66,15,55,185,240,9,122,117,255,73,91,197,101,129,190,123,242,246]},"announce":[],"urlList":[]}}